<svg height="512pt" viewBox="0 0 512 512" width="512pt" xmlns="http://www.w3.org/2000/svg"><path d="m512 256c0 141.386719-114.613281 256-256 256s-256-114.613281-256-256c0-6.636719.25-13.21875.753906-19.71875.34375-4.480469.792969-8.921875 1.367188-13.332031 1.503906-11.679688 3.792968-23.113281 6.824218-34.242188 29.539063-108.742187 128.960938-188.707031 247.054688-188.707031s217.515625 79.964844 247.054688 188.707031c3.03125 11.128907 5.320312 22.5625 6.824218 34.242188.574219 4.410156 1.023438 8.851562 1.367188 13.332031.503906 6.5.753906 13.082031.753906 19.71875zm0 0" fill="#96d6d4"/><path d="m511.246094 236.28125c-6.664063 12.8125-20.050782 21.558594-35.484375 21.558594-16.382813 0-30.457031-9.863282-36.621094-23.980469-6.167969 14.117187-20.242187 23.980469-36.636719 23.980469-16.382812 0-30.457031-9.863282-36.621094-23.980469-6.167968 14.117187-20.242187 23.980469-36.625 23.980469-16.394531 0-30.46875-9.863282-36.632812-23.980469-6.167969 14.117187-20.242188 23.980469-36.625 23.980469s-30.457031-9.863282-36.625-23.980469c-6.164062 14.117187-20.238281 23.980469-36.632812 23.980469-16.382813 0-30.457032-9.863282-36.625-23.980469-6.164063 14.117187-20.238282 23.980469-36.621094 23.980469-16.394532 0-30.46875-9.863282-36.636719-23.980469-6.164063 14.117187-20.238281 23.980469-36.621094 23.980469-15.433593 0-28.820312-8.746094-35.484375-21.558594.34375-4.480469.792969-8.921875 1.367188-13.332031 1.503906-11.679688 3.792968-23.113281 6.824218-34.242188 7.136719-6.6875 16.738282-10.78125 27.292969-10.78125 16.382813 0 30.457031 9.875 36.621094 23.992188 6.167969-14.117188 20.242187-23.992188 36.636719-23.992188 16.382812 0 30.457031 9.875 36.621094 23.992188 6.167968-14.117188 20.242187-23.992188 36.625-23.992188 16.394531 0 30.46875 9.875 36.632812 23.992188 6.167969-14.117188 20.242188-23.992188 36.625-23.992188s30.457031 9.875 36.625 23.992188c6.164062-14.117188 20.238281-23.992188 36.632812-23.992188 16.382813 0 30.457032 9.875 36.625 23.992188 6.164063-14.117188 20.238282-23.992188 36.621094-23.992188 16.394532 0 30.46875 9.875 36.636719 23.992188 6.164063-14.117188 20.238281-23.992188 36.621094-23.992188 10.554687 0 20.15625 4.09375 27.292969 10.78125 3.03125 11.128907 5.320312 22.5625 6.824218 34.242188.574219 4.410156 1.023438 8.851562 1.367188 13.332031zm0 0" fill="#0a9327"/><path d="m512 256c0 4.578125-.113281 9.121094-.367188 13.644531-7.082031 135.042969-118.824218 242.355469-255.632812 242.355469-90.632812 0-170.277344-47.105469-215.761719-118.167969-23.113281-36.101562-37.40625-78.386719-39.851562-123.820312-.011719-.011719 0-.011719 0-.011719-.261719-4.636719-.386719-9.296875-.386719-14 0-11.203125.722656-22.234375 2.121094-33.050781h507.757812c1.398438 10.816406 2.121094 21.847656 2.121094 33.050781zm0 0" fill="#2cce5a"/><path d="m124.917969 244.417969c-8.417969-.707031-15.109375-6.753907-17.007813-14.53125-5.386718 5.929687-14.15625 8.042969-21.890625 4.636719-7.726562-3.40625-12.078125-11.304688-11.339843-19.269532-7.019532 3.84375-15.988282 2.996094-22.1875-2.730468-6.203126-5.722657-7.761719-14.601563-4.484376-21.902344-7.882812 1.378906-16.105468-2.328125-20.121093-9.753906-4.023438-7.4375-2.613281-16.351563 2.867187-22.199219-7.914062-1.269531-14.488281-7.453125-15.859375-15.796875-1.367187-8.324219 2.855469-16.28125 9.917969-20.019532-7.058594-3.757812-11.261719-11.722656-9.875-20.042968 1.390625-8.339844 7.96875-14.515625 15.882812-15.765625-5.464843-5.859375-6.851562-14.773438-2.816406-22.199219 4.03125-7.421875 12.25-11.105469 20.128906-9.71875-3.257812-7.304688-1.683593-16.175781 4.527344-21.882812 6.21875-5.71875 15.195313-6.546876 22.203125-2.679688-.726562-7.980469 3.644531-15.871094 11.375-19.265625 7.746094-3.390625 16.515625-1.253906 21.890625 4.691406 1.914063-7.777343 8.621094-13.820312 17.042969-14.503906 8.402344-.683594 15.984375 4.171875 19.140625 11.515625 4.324219-6.730469 12.613281-10.273438 20.796875-8.207031 8.195313 2.074219 13.808594 9.144531 14.402344 17.132812 6.285156-4.960937 15.28125-5.609375 22.351562-.984375 7.058594 4.628906 10.054688 13.125 8.03125 20.863282 7.546875-2.652344 16.261719-.359376 21.445313 6.296874 5.195312 6.664063 5.28125 15.683594.851562 22.355469 8.011719-.074219 15.523438 4.929688 18.265625 12.925781 2.742188 8-.109375 16.558594-6.476562 21.425782 7.585937 2.542968 13.054687 9.707031 13.054687 18.152344v.109374.152344c-.023437 8.4375-5.496094 15.589844-13.082031 18.117188 6.347656 4.878906 9.183594 13.445312 6.425781 21.433594-2.761718 7.988281-10.28125 12.976562-18.292968 12.894531 4.414062 6.675781 4.304687 15.695312-.894532 22.34375-5.199218 6.648437-13.921875 8.925781-21.460937 6.257812 2.007812 7.742188-1.003907 16.234375-8.074219 20.84375-7.082031 4.617188-16.078125 3.949219-22.355469-1.03125-.609375 7.988281-6.234375 15.054688-14.433593 17.109375-8.191407 2.050782-16.476563-1.507812-20.785157-8.25-2.964843 6.863282-9.800781 11.542969-17.550781 11.542969-.535156-.003906-1.070312-.023437-1.613281-.066406zm0 0" fill="#21bf4a"/><path d="m125.101562 11.292969c3.25-1.417969 6.496094-2.105469 9.441407-2.105469 4.082031 0 7.601562 1.316406 9.769531 3.8125-2.957031-6.878906-9.796875-11.582031-17.570312-11.582031-.519532 0-1.046876.023437-1.570313.0625-4.210937.339843-7.996094 2.023437-10.960937 4.597656-2.96875 2.566406-5.121094 6.023437-6.078126 9.910156-3.640624-4.03125-8.835937-6.308593-14.222656-6.308593-2.558594 0-5.167968.519531-7.671875 1.613281-7.167969 3.152343-11.453125 10.164062-11.453125 17.535156 0 .574219.03125 1.152344.082032 1.730469-2.867188-1.578125-6.058594-2.375-9.25-2.375-4.632813 0-9.273438 1.667968-12.953126 5.054687-4.101562 3.769531-6.1875 8.921875-6.1875 14.089844 0 2.65625.550782 5.316406 1.65625 7.792969-1.097656-.191406-2.199218-.285156-3.296874-.285156-6.789063 0-13.363282 3.621093-16.828126 10.003906-1.578124 2.90625-2.328124 6.035156-2.328124 9.125 0 4.808594 1.8125 9.503906 5.140624 13.070312-3.953124.632813-7.578124 2.488282-10.382812 5.230469-2.808594 2.742187-4.800781 6.371094-5.496094 10.539063-.175781 1.066406-.265625 2.125-.265625 3.171874 0 7.121094 3.984375 13.59375 10.140625 16.867188-6.171875 3.269531-10.175781 9.761719-10.175781 16.894531 0 1.035157.082031 2.074219.257813 3.128907.683593 4.175781 2.671874 7.804687 5.476562 10.554687 2.800781 2.746094 6.421875 4.613281 10.378906 5.242187-3.34375 3.574219-5.171875 8.289063-5.171875 13.109376 0 3.078124.742188 6.199218 2.308594 9.09375 3.457031 6.398437 10.046875 10.039062 16.84375 10.039062 1.089844 0 2.1875-.09375 3.277344-.285156-1.117188 2.492187-1.671875 5.167968-1.671875 7.835937 0 5.15625 2.070312 10.296875 6.15625 14.066407 3.679687 3.398437 8.332031 5.078124 12.976562 5.078124 3.179688 0 6.355469-.789062 9.207032-2.351562-.050782.585938-.082032 1.167969-.082032 1.746094 0 7.355468 4.265625 14.375 11.425782 17.523437 2.507812 1.105469 5.132812 1.632813 7.714843 1.632813 5.355469 0 10.535157-2.261719 14.179688-6.269532 1.890625 7.777344 8.585937 13.828126 17 14.53125.546875.046876 1.082031.0625 1.613281.0625 3.878906 0 7.519531-1.167968 10.574219-3.195312 1.0625-.714844 2.058593-1.527344 2.964843-2.433594-1.488281.410156-3.054687.601563-4.65625.601563-3.453124 0-7.097656-.882813-10.53125-2.398438-7.160156-3.15625-11.421874-12.34375-11.421874-20.015625 0-.605468.027343-1.203125.078124-1.789062-2.851562 1.5625-6.027343 2.351562-9.207031 2.351562-4.644531 0-9.296875-1.675781-12.976562-5.074218-4.085938-3.769532-6.15625-8.910157-6.15625-14.066407 0-2.667969.554687-5.347656 1.671875-7.835937-1.089844.191406-2.1875.285156-3.273438.285156-6.800781 0-13.386718-3.644531-16.847656-10.039062-1.566406-2.894532-2.308594-6.015626-2.308594-9.09375 0-4.824219 1.832032-9.535157 5.175782-13.109376-3.960938-.628906-7.578126-2.496093-10.382813-5.246093-2.804687-2.746094-4.792969-6.378907-5.476563-10.554688-.175781-1.050781-.257812-2.089843-.257812-3.128906 0-7.132813 4.007812-13.621094 10.179688-16.890625-6.15625-3.273438-10.144532-9.746094-10.144532-16.871094 0-1.046875.089844-2.105468.265625-3.167968.695313-4.167969 2.6875-7.800782 5.496094-10.542969 2.804687-2.742188 6.429687-4.59375 10.382813-5.226563-3.328126-3.558594-5.140626-8.261718-5.140626-13.066406 0-3.089844.75-6.222656 2.328126-9.128906 3.46875-6.386719 10.039062-10.003906 16.828124-10.003906 1.097657 0 2.199219.09375 3.296876.285156-1.105469-2.480469-1.65625-5.140625-1.65625-7.792969 0-5.167969 2.082031-10.320313 6.1875-14.09375 3.679687-3.382813 8.320312-5.050781 12.953124-5.050781 3.191407 0 6.386719.796875 9.25 2.375-.050781-.574219-.074218-1.152344-.074218-1.726563 0-7.363281 4.273437-14.386719 11.449218-17.539062zm0 0" fill="#17aa3d"/><path d="m194.53125 284.996094h-117.394531c23.429687 0 31.839843-19.941406 31.839843-26.796875v-55.921875c2.015626 1.230468 4.304688 2.109375 6.777344 2.523437.535156.089844 1.070313.152344 1.601563.199219.539062.046875 1.070312.070312 1.601562.070312 7.105469 0 13.570313-3.972656 16.851563-10.105468 3.261718 6.199218 9.761718 10.214844 16.921875 10.214844 1.023437 0 2.058593-.082032 3.097656-.25 2.507813-.410157 4.824219-1.289063 6.867187-2.539063v55.804687c0 6.859376 8.40625 26.800782 31.835938 26.800782zm0 0" fill="#ab5816"/><path d="m118.957031 205.070312c2.511719 0 4.949219-.496093 7.1875-1.410156v54.539063c0 6.855469-3.035156 26.796875-11.488281 26.796875h-37.515625c23.429687 0 31.835937-19.941406 31.835937-26.796875v-55.921875c2.019532 1.230468 4.304688 2.109375 6.777344 2.523437.539063.089844 1.070313.152344 1.601563.199219.539062.046875 1.070312.070312 1.601562.070312zm0 0" fill="#8c3e09"/><path d="m425.074219 203.734375c-4.320313-.359375-7.757813-3.464844-8.734375-7.457031-2.761719 3.042968-7.265625 4.128906-11.234375 2.378906s-6.203125-5.800781-5.824219-9.890625c-3.601562 1.972656-8.207031 1.535156-11.390625-1.402344-3.183594-2.941406-3.980469-7.496093-2.300781-11.242187-4.042969.707031-8.265625-1.199219-10.328125-5.007813-2.066407-3.820312-1.339844-8.394531 1.472656-11.394531-4.0625-.652344-7.4375-3.828125-8.140625-8.113281-.703125-4.273438 1.464844-8.355469 5.09375-10.277344-3.625-1.929687-5.785156-6.015625-5.070312-10.289063.710937-4.28125 4.089843-7.449218 8.152343-8.09375-2.804687-3.003906-3.519531-7.582031-1.449219-11.394531 2.070313-3.808593 6.289063-5.703125 10.335938-4.988281-1.671875-3.75-.863281-8.304688 2.324219-11.234375 3.191406-2.9375 7.800781-3.359375 11.398437-1.375-.375-4.097656 1.871094-8.148437 5.839844-9.890625 3.972656-1.738281 8.476562-.640625 11.238281 2.410156.980469-3.992187 4.421875-7.09375 8.746094-7.445312 4.316406-.351563 8.207031 2.140625 9.824219 5.910156 2.222656-3.453125 6.476562-5.273438 10.679687-4.210938 4.207031 1.0625 7.085938 4.691407 7.394531 8.792969 3.222657-2.546875 7.84375-2.878906 11.472657-.503906 3.621093 2.375 5.160156 6.734375 4.125 10.707031 3.871093-1.359375 8.34375-.183594 11.003906 3.230469 2.667969 3.421875 2.710937 8.050781.4375 11.476563 4.113281-.035157 7.972656 2.53125 9.378906 6.636718 1.40625 4.109375-.058593 8.5-3.324219 11 3.890626 1.304688 6.699219 4.980469 6.699219 9.316406v.058594.078125c-.011719 4.328125-2.820312 8.003907-6.714843 9.300781 3.257812 2.5 4.714843 6.902344 3.296874 11-1.417968 4.101563-5.277343 6.664063-9.390624 6.621094 2.265624 3.425782 2.210937 8.054688-.457032 11.46875-2.671875 3.414063-7.148437 4.582032-11.019531 3.210938 1.03125 3.976562-.515625 8.335937-4.144531 10.703125-3.636719 2.371093-8.253906 2.027343-11.476563-.53125-.3125 4.101562-3.199219 7.730469-7.410156 8.785156-4.203125 1.054687-8.457031-.773437-10.667969-4.234375-1.523437 3.523438-5.03125 5.925781-9.007812 5.925781-.277344 0-.550782-.011719-.828125-.035156zm0 0" fill="#21bf4a"/><path d="m425.167969 84.0625c1.667969-.730469 3.335937-1.078125 4.847656-1.078125 2.09375 0 3.898437.671875 5.015625 1.957031-1.519531-3.535156-5.03125-5.949218-9.019531-5.949218-.269531 0-.539063.011718-.808594.035156-2.160156.175781-4.105469 1.039062-5.625 2.359375-1.523437 1.316406-2.628906 3.089843-3.121094 5.085937-1.867187-2.066406-4.539062-3.238281-7.300781-3.238281-1.316406 0-2.652344.269531-3.9375.828125-3.679688 1.617188-5.882812 5.21875-5.882812 9.003906 0 .292969.015624.589844.042968.886719-1.472656-.8125-3.109375-1.21875-4.75-1.21875-2.375 0-4.757812.855469-6.648437 2.59375-2.105469 1.9375-3.175781 4.582031-3.175781 7.234375 0 1.363281.28125 2.726562.851562 4-.566406-.097656-1.128906-.148438-1.695312-.148438-3.484376 0-6.855469 1.859376-8.636719 5.136719-.8125 1.492188-1.195313 3.097657-1.195313 4.683594 0 2.46875.929688 4.878906 2.636719 6.710937-2.027344.324219-3.886719 1.273438-5.328125 2.683594-1.441406 1.40625-2.464844 3.269532-2.824219 5.410156-.089843.546876-.132812 1.089844-.132812 1.628907 0 3.65625 2.042969 6.976562 5.203125 8.660156-3.164063 1.675781-5.222656 5.007813-5.222656 8.671875 0 .527344.042968 1.0625.132812 1.605469.351562 2.140625 1.371094 4.007812 2.8125 5.417969 1.4375 1.410156 3.296875 2.367187 5.328125 2.691406-1.714844 1.832031-2.65625 4.253906-2.65625 6.730468 0 1.578126.382813 3.179688 1.1875 4.667969 1.773437 3.285157 5.15625 5.152344 8.648437 5.152344.554688 0 1.121094-.046875 1.679688-.148437-.574219 1.28125-.859375 2.65625-.859375 4.023437 0 2.648437 1.0625 5.285156 3.160156 7.222656 1.890625 1.742188 4.277344 2.605469 6.660157 2.605469 1.632812 0 3.265624-.40625 4.726562-1.207031-.027344.300781-.039062.601562-.039062.898437 0 3.773438 2.1875 7.375 5.863281 8.992188 1.289062.570312 2.636719.839844 3.960937.839844 2.746094 0 5.40625-1.164063 7.277344-3.21875.972656 3.992187 4.410156 7.097656 8.730469 7.460937.277343.023437.554687.03125.828125.03125 1.988281 0 3.859375-.601563 5.425781-1.640625.546875-.367188 1.058594-.785156 1.523437-1.25-.765624.210938-1.570312.3125-2.390624.3125-1.773438 0-3.644532-.457031-5.40625-1.234375-3.675782-1.617187-5.867188-6.335937-5.867188-10.273437 0-.3125.015625-.617188.042969-.917969-1.464844.800781-3.09375 1.207031-4.726563 1.207031-2.382812 0-4.773437-.859375-6.660156-2.605469-2.097656-1.9375-3.160156-4.574219-3.160156-7.222656 0-1.367187.285156-2.742187.859375-4.019531-.558594.097656-1.125.144531-1.683594.144531-3.488281 0-6.871094-1.867187-8.648437-5.152344-.800782-1.484375-1.183594-3.089843-1.183594-4.667969 0-2.476562.9375-4.894531 2.65625-6.730468-2.03125-.324219-3.890625-1.28125-5.328125-2.691406-1.441407-1.410157-2.460938-3.273438-2.8125-5.417969-.089844-.539063-.132813-1.074219-.132813-1.605469 0-3.664062 2.058594-6.996094 5.226563-8.671875-3.160157-1.683594-5.207031-5.003906-5.207031-8.660156 0-.539063.042968-1.082031.132812-1.628907.359375-2.136718 1.382812-4.003906 2.820312-5.410156 1.441407-1.40625 3.304688-2.359375 5.332032-2.683594-1.707032-1.828124-2.636719-4.242187-2.636719-6.707031 0-1.585937.382813-3.195312 1.191406-4.6875 1.78125-3.277343 5.15625-5.132812 8.640625-5.132812.566406 0 1.128906.046875 1.691406.144531-.566406-1.269531-.847656-2.636719-.847656-4 0-2.652344 1.070313-5.296875 3.175782-7.234375 1.886718-1.738281 4.269531-2.59375 6.648437-2.59375 1.636719 0 3.277344.410156 4.75 1.21875-.027344-.292969-.039063-.589844-.039063-.882813 0-3.785156 2.195313-7.390624 5.878907-9.007812zm0 0" fill="#17aa3d"/><path d="m460.808594 224.566406h-60.265625c12.03125 0 16.347656-10.234375 16.347656-13.757812v-28.707032c1.035156.632813 2.207031 1.085938 3.476563 1.296876.277343.046874.550781.078124.824218.101562.273438.027344.546875.039062.820313.039062 3.648437 0 6.96875-2.039062 8.652343-5.1875 1.675782 3.183594 5.011719 5.246094 8.6875 5.246094.523438 0 1.054688-.042968 1.589844-.132812 1.289063-.207032 2.476563-.660156 3.523438-1.300782v28.648438c0 3.519531 4.316406 13.753906 16.34375 13.753906zm0 0" fill="#ab5816"/><path d="m422.011719 183.539062c1.289062 0 2.539062-.257812 3.691406-.726562v27.996094c0 3.523437-1.558594 13.757812-5.898437 13.757812h-19.257813c12.027344 0 16.34375-10.234375 16.34375-13.757812v-28.707032c1.035156.632813 2.207031 1.085938 3.476563 1.296876.277343.046874.550781.078124.824218.101562.277344.027344.550782.039062.820313.039062zm0 0" fill="#8c3e09"/><path d="m163.371094 375.191406c-14.589844 19.371094-39.59375 26.257813-61.347656 18.765625-.6875 1.503907-1.535157 2.96875-2.570313 4.347657-7.753906 10.292968-22.371094 12.351562-32.664063 4.609374-4.972656-3.753906-8.003906-9.101562-8.953124-14.796874-5.527344 2.90625-11.484376 4.828124-17.597657 5.714843-23.113281-36.101562-37.40625-78.386719-39.851562-123.820312-.011719-.011719 0-.011719 0-.011719.105469-.15625.21875-.300781.335937-.457031 6.257813-8.320313 17.007813-11.253907 26.339844-7.984375 1.410156-2.757813 3.0625-5.445313 4.996094-8.003906 13.488281-17.929688 35.902344-25.183594 56.402344-20.21875.011718 0 .03125.011718.050781.011718.242187.050782.480469.113282.722656.175782s.492187.125.742187.199218c6.488282 1.765625 12.757813 4.773438 18.464844 9.070313 10.84375 8.160156 17.761719 19.582031 20.457032 31.878906 6.0625-1.003906 12.519531.367187 17.816406 4.359375 7.136718 5.367188 10.300781 14.0625 8.996094 22.308594 21.324218 18.640625 24.960937 50.863281 7.660156 73.851562zm0 0" fill="#21bf4a"/><path d="m87.480469 233.117188c-33.1875-6.824219-44.011719 38.753906-29.5625 53.195312 0 0-15.316407 8.171875-15.316407 27.574219 0 19.40625 9.351563 28.765625 9.351563 28.765625s-15.421875 24.160156 5.882813 45.464844c-5.527344 2.90625-11.484376 4.828124-17.597657 5.714843-23.113281-36.101562-37.40625-78.386719-39.851562-123.820312.105469-.15625.21875-.3125.335937-.46875 6.257813-8.320313 17.007813-11.253907 26.339844-7.984375 1.410156-2.757813 3.0625-5.445313 4.996094-8.003906 13.269531-17.648438 35.191406-24.953126 55.421875-20.4375zm0 0" fill="#17aa3d"/><path d="m108.976562 323.074219c0 4.511719-3.65625 8.167969-8.167968 8.167969-4.511719 0-8.171875-3.65625-8.171875-8.167969s3.660156-8.171875 8.171875-8.171875c4.511718 0 8.167968 3.660156 8.167968 8.171875zm0 0" fill="#f73e3e"/><path d="m78.339844 282.5625c0 4.511719-3.65625 8.171875-8.167969 8.171875-4.515625 0-8.171875-3.660156-8.171875-8.171875s3.65625-8.167969 8.171875-8.167969c4.511719 0 8.167969 3.65625 8.167969 8.167969zm0 0" fill="#f73e3e"/><path d="m49.203125 335.855469c0 4.515625-3.65625 8.171875-8.171875 8.171875-4.511719 0-8.167969-3.65625-8.167969-8.171875 0-4.511719 3.65625-8.167969 8.167969-8.167969 4.515625 0 8.171875 3.65625 8.171875 8.167969zm0 0" fill="#f73e3e"/><path d="m143.570312 361.710938c0 4.511718-3.65625 8.171874-8.167968 8.171874-4.511719 0-8.171875-3.660156-8.171875-8.171874 0-4.511719 3.660156-8.167969 8.171875-8.167969 4.511718 0 8.167968 3.65625 8.167968 8.167969zm0 0" fill="#f73e3e"/><path d="m144.011719 301.066406c0 4.511719-3.660157 8.167969-8.171875 8.167969-4.511719 0-8.171875-3.65625-8.171875-8.167969 0-4.511718 3.660156-8.171875 8.171875-8.171875 4.511718 0 8.171875 3.660157 8.171875 8.171875zm0 0" fill="#f73e3e"/><path d="m512 256c0 4.578125-.113281 9.121094-.367188 13.644531-21.074218 3.460938-44.8125 5.394531-69.933593 5.394531-87.132813 0-157.78125-23.324218-157.78125-52.089843h225.960937c1.398438 10.816406 2.121094 21.847656 2.121094 33.050781zm0 0" fill="#96d6d4"/><path d="m269.507812 249.882812h20.425782v179.742188h-20.425782zm0 0" fill="#5b565e"/><path d="m389.96875 249.882812h20.425781v179.742188h-20.425781zm0 0" fill="#5b565e"/><path d="m281.230469 347.242188h119.828125v17.023437h-119.828125zm0 0" fill="#5b565e"/><path d="m423.820312 272.46875c-55.914062.964844-111.824218.964844-167.734374 0-4.542969-.078125-8.585938-2.972656-10.070313-7.265625-1.886719-5.445313-1.886719-10.894531 0-16.34375 1.484375-4.292969 5.527344-7.183594 10.070313-7.261719 55.910156-.96875 111.820312-.96875 167.734374 0 4.539063.078125 8.582032 2.972656 10.070313 7.261719 1.886719 5.449219 1.886719 10.898437 0 16.347656-1.488281 4.289063-5.53125 7.183594-10.070313 7.261719zm0 0" fill="#ffbb16"/><path d="m423.820312 314.679688c-55.914062.96875-111.824218.96875-167.734374 0-4.542969-.078126-8.585938-2.972657-10.070313-7.261719-1.886719-5.449219-1.886719-10.898438 0-16.347657 1.484375-4.289062 5.527344-7.183593 10.070313-7.261718 55.910156-.96875 111.820312-.96875 167.734374 0 4.539063.078125 8.582032 2.972656 10.070313 7.261718 1.886719 5.449219 1.886719 10.898438 0 16.347657-1.488281 4.289062-5.53125 7.183593-10.070313 7.261719zm0 0" fill="#ffbb16"/><path d="m444.417969 347.179688c-1.648438 3-6.144531 5.027343-11.199219 5.078124-62.171875.679688-124.355469.679688-186.535156 0-5.046875-.050781-9.539063-2.078124-11.203125-5.078124-1.972657-3.59375-2.078125-7.1875-.332031-10.792969.101562-.21875.21875-.429688.332031-.648438 1.664062-3.007812 6.15625-5.035156 11.203125-5.085937 62.179687-.679688 124.363281-.679688 186.535156 0 5.054688.050781 9.550781 2.078125 11.199219 5.085937.125.21875.230469.429688.335937.648438 1.753906 3.605469 1.652344 7.199219-.335937 10.792969zm0 0" fill="#ff931f"/><path d="m444.753906 336.386719c-.105468.21875-.210937.4375-.335937.660156-1.648438 3.007813-6.144531 5.023437-11.199219 5.085937-62.171875.679688-124.355469.679688-186.535156 0-5.046875-.0625-9.539063-2.078124-11.203125-5.085937-.113281-.222656-.230469-.441406-.332031-.660156.101562-.21875.21875-.429688.332031-.648438 1.664062-3.007812 6.15625-5.035156 11.203125-5.085937 62.179687-.679688 124.363281-.679688 186.535156 0 5.054688.050781 9.550781 2.078125 11.199219 5.085937.125.21875.230469.429688.335937.648438zm0 0" fill="#ffbb16"/><path d="m285.484375 299.246094c0 3.289062-2.667969 5.953125-5.957031 5.953125-3.289063 0-5.957032-2.664063-5.957032-5.953125 0-3.292969 2.667969-5.957032 5.957032-5.957032 3.289062 0 5.957031 2.664063 5.957031 5.957032zm0 0" fill="#5b565e"/><path d="m285.484375 257.203125c0 3.289063-2.667969 5.957031-5.957031 5.957031-3.289063 0-5.957032-2.667968-5.957032-5.957031s2.667969-5.957031 5.957032-5.957031c3.289062 0 5.957031 2.667968 5.957031 5.957031zm0 0" fill="#5b565e"/><path d="m407.015625 299.246094c0 3.289062-2.667969 5.953125-5.957031 5.953125-3.292969 0-5.957032-2.664063-5.957032-5.953125 0-3.292969 2.664063-5.957032 5.957032-5.957032 3.289062 0 5.957031 2.664063 5.957031 5.957032zm0 0" fill="#5b565e"/><path d="m407.015625 257.203125c0 3.289063-2.667969 5.957031-5.957031 5.957031-3.292969 0-5.957032-2.667968-5.957032-5.957031s2.664063-5.957031 5.957032-5.957031c3.289062 0 5.957031 2.667968 5.957031 5.957031zm0 0" fill="#5b565e"/><g fill="#17aa3d"><path d="m163.527344 470.960938h-20.878906v-5.226563c0-14.332031-13.894532-19.546875-14.035157-19.597656-2.710937-.988281-4.109375-3.984375-3.125-6.699219.988281-2.710938 3.984375-4.109375 6.695313-3.121094.78125.28125 17.625 6.617188 20.5 24.195313h.808594c2.875-17.578125 19.71875-23.914063 20.5-24.195313 2.714843-.988281 5.710937.410156 6.695312 3.121094.984375 2.707031-.40625 5.695312-3.101562 6.6875-.628907.238281-14.058594 5.476562-14.058594 19.609375zm0 0"/><path d="m154.003906 470.960938c-.390625 0-.792968-.046876-1.191406-.136719-2.808594-.65625-4.550781-3.460938-3.902344-6.265625.066406-.292969 4.753906-21.726563-8.132812-34.617188-2.042969-2.042968-2.042969-5.347656 0-7.390625 2.039062-2.039062 5.347656-2.039062 7.386718 0 17.0625 17.066407 11.183594 43.265625 10.925782 44.375-.5625 2.40625-2.710938 4.035157-5.085938 4.035157zm0 0"/><path d="m410.394531 434.847656h-20.878906v-5.222656c0-14.332031-13.894531-19.550781-14.035156-19.601562-2.710938-.984376-4.109375-3.984376-3.125-6.695313.988281-2.710937 3.984375-4.109375 6.695312-3.125.78125.285156 17.628907 6.617187 20.5 24.195313h.808594c2.875-17.574219 19.71875-23.910157 20.5-24.195313 2.714844-.984375 5.710937.414063 6.695313 3.125.984374 2.703125-.40625 5.695313-3.101563 6.6875-.628906.238281-14.058594 5.476563-14.058594 19.609375zm0 0"/><path d="m400.871094 434.851562c-.390625 0-.792969-.046874-1.191406-.140624-2.808594-.65625-4.550782-3.457032-3.902344-6.265626.066406-.289062 4.753906-21.726562-8.136719-34.613281-2.039063-2.042969-2.039063-5.347656 0-7.390625 2.039063-2.039062 5.351563-2.039062 7.390625 0 17.0625 17.0625 11.183594 43.265625 10.925781 44.371094-.5625 2.410156-2.710937 4.039062-5.085937 4.039062zm0 0"/><path d="m304.808594 495.867188h-20.878906v-5.226563c0-14.332031-13.894532-19.546875-14.035157-19.597656-2.710937-.988281-4.109375-3.984375-3.125-6.699219.988281-2.710938 3.984375-4.109375 6.695313-3.121094.78125.28125 17.625 6.617188 20.5 24.195313h.808594c2.875-17.578125 19.71875-23.914063 20.5-24.195313 2.714843-.988281 5.707031.410156 6.695312 3.121094.984375 2.707031-.40625 5.695312-3.101562 6.6875-.628907.238281-14.058594 5.476562-14.058594 19.609375zm0 0"/><path d="m295.285156 495.867188c-.394531 0-.792968-.046876-1.195312-.136719-2.804688-.65625-4.546875-3.460938-3.898438-6.265625.066406-.292969 4.753906-21.726563-8.136718-34.617188-2.039063-2.042968-2.039063-5.347656 0-7.390625 2.039062-2.039062 5.351562-2.039062 7.386718 0 17.066406 17.066407 11.183594 43.265625 10.925782 44.375-.5625 2.40625-2.710938 4.035157-5.082032 4.035157zm0 0"/><path d="m209.324219 314.210938h-10.398438v-2.605469c0-7.136719-6.921875-9.738281-6.992187-9.761719-1.351563-.492188-2.046875-1.984375-1.554688-3.335938.488282-1.351562 1.984375-2.046874 3.332032-1.554687.390624.140625 8.78125 3.296875 10.210937 12.050781h.40625c1.429687-8.753906 9.820313-11.910156 10.210937-12.050781 1.347657-.492187 2.84375.207031 3.332032 1.554687.492187 1.347657-.199219 2.835938-1.542969 3.332032-.3125.117187-7.003906 2.726562-7.003906 9.765625zm0 0"/><path d="m204.582031 314.210938c-.195312 0-.394531-.023438-.597656-.070313-1.394531-.328125-2.265625-1.722656-1.941406-3.121094.03125-.144531 2.367187-10.820312-4.050781-17.242187-1.019532-1.015625-1.019532-2.664063 0-3.679688 1.015624-1.015625 2.664062-1.015625 3.679687 0 8.5 8.5 5.570313 21.550782 5.441406 22.101563-.28125 1.199219-1.351562 2.011719-2.53125 2.011719zm0 0"/><path d="m478.578125 315.671875h-10.398437v-2.601563c0-7.140624-6.921876-9.738281-6.992188-9.761718-1.347656-.492188-2.046875-1.984375-1.554688-3.335938.492188-1.351562 1.984376-2.046875 3.335938-1.558594.386719.140626 8.777344 3.296876 10.210938 12.054688h.402343c1.433594-8.757812 9.820313-11.914062 10.210938-12.054688 1.351562-.488281 2.84375.207032 3.335937 1.558594.488282 1.34375-.203125 2.835938-1.546875 3.328125-.3125.121094-7 2.730469-7 9.769531v2.601563zm0 0"/><path d="m473.835938 315.671875c-.195313 0-.394532-.019531-.59375-.066406-1.398438-.328125-2.265626-1.722657-1.945313-3.121094.035156-.144531 2.367187-10.824219-4.050781-17.246094-1.015625-1.015625-1.015625-2.664062 0-3.679687s2.664062-1.015625 3.679687 0c8.5 8.5 5.570313 21.550781 5.441407 22.101562-.277344 1.203125-1.347657 2.011719-2.53125 2.011719zm0 0"/><path d="m228.476562 276.535156h-7.214843v-1.804687c0-4.953125-4.800781-6.757813-4.851563-6.773438-.9375-.34375-1.417968-1.378906-1.078125-2.316406.339844-.9375 1.375-1.417969 2.3125-1.078125.269531.097656 6.089844 2.289062 7.082031 8.363281h.28125c.992188-6.074219 6.8125-8.265625 7.082032-8.363281.9375-.339844 1.976562.140625 2.316406 1.078125s-.140625 1.96875-1.074219 2.3125c-.214843.082031-4.855469 1.894531-4.855469 6.777344zm0 0"/><path d="m225.1875 276.535156c-.136719 0-.273438-.015625-.414062-.046875-.96875-.226562-1.574219-1.195312-1.347657-2.164062.023438-.101563 1.640625-7.511719-2.8125-11.964844-.707031-.703125-.707031-1.847656 0-2.554687.703125-.703126 1.847657-.703126 2.554688 0 5.894531 5.898437 3.863281 14.953124 3.773437 15.335937-.191406.832031-.9375 1.394531-1.753906 1.394531zm0 0"/><path d="m20.53125 248.386719h-7.214844v-1.804688c0-4.953125-4.800781-6.753906-4.847656-6.773437-.9375-.339844-1.421875-1.375-1.082031-2.3125.339843-.9375 1.375-1.421875 2.3125-1.078125.269531.097656 6.09375 2.285156 7.085937 8.359375h.277344c.996094-6.074219 6.816406-8.261719 7.085938-8.359375.9375-.34375 1.972656.140625 2.3125 1.078125.339843.933594-.140626 1.96875-1.070313 2.3125-.21875.082031-4.859375 1.890625-4.859375 6.773437zm0 0"/><path d="m17.242188 248.386719c-.136719 0-.273438-.015625-.414063-.046875-.96875-.226563-1.574219-1.195313-1.347656-2.164063.023437-.101562 1.640625-7.507812-2.8125-11.964843-.703125-.703126-.703125-1.847657 0-2.550782.703125-.707031 1.847656-.707031 2.554687 0 5.894532 5.894532 3.863282 14.949219 3.773438 15.332032-.191406.832031-.933594 1.394531-1.753906 1.394531zm0 0"/></g></svg>